# xmcd CD database file
#
# Track frame offsets:
#	150
#	13355
#	27283
#	43263
#	57865
#	76350
#	88913
#	104260
#	118985
#	133463
#	150258
#	164323
#
# Disc length: 2372 seconds
#
# Revision: 0
# Processed by: cddbd v1.5.2PL0 Copyright (c) Steve Scherf et al.
# Submitted via: ACXtractor (MTCDDB.DLL V2003.07.15)
#
DISCID=a209420c
DTITLE=Tom Maxwell - Songwriters Salute
DYEAR=2005
DGENRE=Country
TTITLE0=Deisel in My Veins
TTITLE1=The Pioneers Reward
TTITLE2=You're the Driving Force
TTITLE3=You can Never do Wrong
TTITLE4=Whatever turns you On
TTITLE5=Notches on the Tin
TTITLE6=The King the Saddle and Me
TTITLE7=Through an Old Bushman's Eyes
TTITLE8=Little Old Country Pub
TTITLE9=My Favourite Squatters Chair
TTITLE10=Leave him in the Longyard
TTITLE11=The Australian Balladeer
EXTD=ID3G:   2 YEAR: 2005
EXTT0=
EXTT1=
EXTT2=
EXTT3=
EXTT4=
EXTT5=
EXTT6=
EXTT7=
EXTT8=
EXTT9=
EXTT10=
EXTT11=
PLAYORDER=
